<svg width="110" height="44" viewBox="0 0 110 44" fill="none" xmlns="http://www.w3.org/2000/svg">
<rect width="110" height="44" rx="4" fill="white"/>
<path d="M15.4085 25.152H18.5445V27H13.0145V17.172H15.4085V25.152ZM20.8904 18.376C20.4704 18.376 20.125 18.2547 19.8544 18.012C19.593 17.76 19.4624 17.452 19.4624 17.088C19.4624 16.7147 19.593 16.4067 19.8544 16.164C20.125 15.912 20.4704 15.786 20.8904 15.786C21.301 15.786 21.637 15.912 21.8984 16.164C22.169 16.4067 22.3044 16.7147 22.3044 17.088C22.3044 17.452 22.169 17.76 21.8984 18.012C21.637 18.2547 21.301 18.376 20.8904 18.376ZM22.0804 19.188V27H19.6864V19.188H22.0804ZM23.3393 23.108C23.3393 22.3333 23.4979 21.6427 23.8153 21.036C24.1419 20.4293 24.5759 19.958 25.1173 19.622C25.6679 19.2767 26.2653 19.104 26.9093 19.104C27.4039 19.104 27.8473 19.1927 28.2393 19.37C28.6313 19.538 28.9486 19.776 29.1913 20.084V19.188H31.5853V30.724H29.1913V26.02C28.9206 26.3467 28.5893 26.608 28.1973 26.804C27.8146 27 27.3759 27.098 26.8813 27.098C26.2466 27.098 25.6586 26.93 25.1173 26.594C24.5759 26.258 24.1419 25.7867 23.8153 25.18C23.4979 24.5733 23.3393 23.8827 23.3393 23.108ZM29.1913 23.094C29.1913 22.674 29.1073 22.324 28.9393 22.044C28.7806 21.7547 28.5706 21.54 28.3093 21.4C28.0479 21.2507 27.7726 21.176 27.4833 21.176C27.2033 21.176 26.9326 21.2507 26.6713 21.4C26.4099 21.54 26.1953 21.7547 26.0273 22.044C25.8593 22.3333 25.7753 22.688 25.7753 23.108C25.7753 23.528 25.8593 23.8827 26.0273 24.172C26.1953 24.452 26.4099 24.6667 26.6713 24.816C26.9326 24.956 27.2033 25.026 27.4833 25.026C27.7633 25.026 28.0339 24.956 28.2953 24.816C28.5659 24.6667 28.7806 24.4473 28.9393 24.158C29.1073 23.8687 29.1913 23.514 29.1913 23.094ZM41.0312 19.188V27H38.6372V25.936C38.3946 26.2813 38.0632 26.5613 37.6432 26.776C37.2326 26.9813 36.7752 27.084 36.2712 27.084C35.6739 27.084 35.1466 26.9533 34.6892 26.692C34.2319 26.4213 33.8772 26.034 33.6252 25.53C33.3732 25.026 33.2472 24.4333 33.2472 23.752V19.188H35.6272V23.43C35.6272 23.9527 35.7626 24.3587 36.0332 24.648C36.3039 24.9373 36.6679 25.082 37.1252 25.082C37.5919 25.082 37.9606 24.9373 38.2312 24.648C38.5019 24.3587 38.6372 23.9527 38.6372 23.43V19.188H41.0312ZM43.9548 18.376C43.5348 18.376 43.1895 18.2547 42.9188 18.012C42.6575 17.76 42.5268 17.452 42.5268 17.088C42.5268 16.7147 42.6575 16.4067 42.9188 16.164C43.1895 15.912 43.5348 15.786 43.9548 15.786C44.3655 15.786 44.7015 15.912 44.9628 16.164C45.2335 16.4067 45.3688 16.7147 45.3688 17.088C45.3688 17.452 45.2335 17.76 44.9628 18.012C44.7015 18.2547 44.3655 18.376 43.9548 18.376ZM45.1448 19.188V27H42.7508V19.188H45.1448ZM46.4037 23.08C46.4037 22.2773 46.5531 21.5727 46.8517 20.966C47.1597 20.3593 47.5751 19.8927 48.0977 19.566C48.6204 19.2393 49.2037 19.076 49.8477 19.076C50.3611 19.076 50.8277 19.1833 51.2477 19.398C51.6771 19.6127 52.0131 19.902 52.2557 20.266V16.64H54.6497V27H52.2557V25.88C52.0317 26.2533 51.7097 26.552 51.2897 26.776C50.8791 27 50.3984 27.112 49.8477 27.112C49.2037 27.112 48.6204 26.9487 48.0977 26.622C47.5751 26.286 47.1597 25.8147 46.8517 25.208C46.5531 24.592 46.4037 23.8827 46.4037 23.08ZM52.2557 23.094C52.2557 22.4967 52.0877 22.0253 51.7517 21.68C51.4251 21.3347 51.0237 21.162 50.5477 21.162C50.0717 21.162 49.6657 21.3347 49.3297 21.68C49.0031 22.016 48.8397 22.4827 48.8397 23.08C48.8397 23.6773 49.0031 24.1533 49.3297 24.508C49.6657 24.8533 50.0717 25.026 50.5477 25.026C51.0237 25.026 51.4251 24.8533 51.7517 24.508C52.0877 24.1627 52.2557 23.6913 52.2557 23.094Z" fill="#980077"/>
<path d="M62.9057 20.28C62.7283 19.9533 62.4717 19.706 62.1357 19.538C61.809 19.3607 61.4217 19.272 60.9737 19.272C60.199 19.272 59.5783 19.5287 59.1117 20.042C58.645 20.546 58.4117 21.2227 58.4117 22.072C58.4117 22.9773 58.6543 23.6867 59.1397 24.2C59.6343 24.704 60.311 24.956 61.1697 24.956C61.7577 24.956 62.2523 24.8067 62.6537 24.508C63.0643 24.2093 63.363 23.78 63.5497 23.22H60.5117V21.456H65.7197V23.682C65.5423 24.2793 65.239 24.8347 64.8097 25.348C64.3897 25.8613 63.853 26.2767 63.1997 26.594C62.5463 26.9113 61.809 27.07 60.9877 27.07C60.017 27.07 59.149 26.86 58.3837 26.44C57.6277 26.0107 57.035 25.418 56.6057 24.662C56.1857 23.906 55.9757 23.0427 55.9757 22.072C55.9757 21.1013 56.1857 20.238 56.6057 19.482C57.035 18.7167 57.6277 18.124 58.3837 17.704C59.1397 17.2747 60.003 17.06 60.9737 17.06C62.1497 17.06 63.139 17.3447 63.9417 17.914C64.7537 18.4833 65.2903 19.272 65.5517 20.28H62.9057ZM69.4397 20.49C69.7197 20.0607 70.0697 19.7247 70.4897 19.482C70.9097 19.23 71.3764 19.104 71.8897 19.104V21.638H71.2317C70.6344 21.638 70.1864 21.7687 69.8877 22.03C69.5891 22.282 69.4397 22.73 69.4397 23.374V27H67.0457V19.188H69.4397V20.49ZM80.398 22.968C80.398 23.192 80.384 23.4253 80.356 23.668H74.938C74.9753 24.1533 75.1293 24.5267 75.4 24.788C75.68 25.04 76.0207 25.166 76.422 25.166C77.0193 25.166 77.4347 24.914 77.668 24.41H80.216C80.0853 24.9233 79.8473 25.3853 79.502 25.796C79.166 26.2067 78.7413 26.5287 78.228 26.762C77.7147 26.9953 77.1407 27.112 76.506 27.112C75.7407 27.112 75.0593 26.9487 74.462 26.622C73.8647 26.2953 73.398 25.8287 73.062 25.222C72.726 24.6153 72.558 23.906 72.558 23.094C72.558 22.282 72.7213 21.5727 73.048 20.966C73.384 20.3593 73.8507 19.8927 74.448 19.566C75.0453 19.2393 75.7313 19.076 76.506 19.076C77.262 19.076 77.934 19.2347 78.522 19.552C79.11 19.8693 79.5673 20.322 79.894 20.91C80.23 21.498 80.398 22.184 80.398 22.968ZM77.948 22.338C77.948 21.9273 77.808 21.6007 77.528 21.358C77.248 21.1153 76.898 20.994 76.478 20.994C76.0767 20.994 75.736 21.1107 75.456 21.344C75.1853 21.5773 75.0173 21.9087 74.952 22.338H77.948ZM89.025 22.968C89.025 23.192 89.011 23.4253 88.983 23.668H83.565C83.6023 24.1533 83.7563 24.5267 84.027 24.788C84.307 25.04 84.6476 25.166 85.049 25.166C85.6463 25.166 86.0616 24.914 86.295 24.41H88.843C88.7123 24.9233 88.4743 25.3853 88.129 25.796C87.793 26.2067 87.3683 26.5287 86.855 26.762C86.3416 26.9953 85.7676 27.112 85.133 27.112C84.3676 27.112 83.6863 26.9487 83.089 26.622C82.4916 26.2953 82.025 25.8287 81.689 25.222C81.353 24.6153 81.185 23.906 81.185 23.094C81.185 22.282 81.3483 21.5727 81.675 20.966C82.011 20.3593 82.4776 19.8927 83.075 19.566C83.6723 19.2393 84.3583 19.076 85.133 19.076C85.889 19.076 86.561 19.2347 87.149 19.552C87.737 19.8693 88.1943 20.322 88.521 20.91C88.857 21.498 89.025 22.184 89.025 22.968ZM86.575 22.338C86.575 21.9273 86.435 21.6007 86.155 21.358C85.875 21.1153 85.525 20.994 85.105 20.994C84.7036 20.994 84.363 21.1107 84.083 21.344C83.8123 21.5773 83.6443 21.9087 83.579 22.338H86.575ZM95.0479 19.104C95.9626 19.104 96.6906 19.4027 97.2319 20C97.7826 20.588 98.0579 21.4 98.0579 22.436V27H95.6779V22.758C95.6779 22.2353 95.5426 21.8293 95.2719 21.54C95.0013 21.2507 94.6373 21.106 94.1799 21.106C93.7226 21.106 93.3586 21.2507 93.0879 21.54C92.8173 21.8293 92.6819 22.2353 92.6819 22.758V27H90.2879V19.188H92.6819V20.224C92.9246 19.8787 93.2513 19.608 93.6619 19.412C94.0726 19.2067 94.5346 19.104 95.0479 19.104Z" fill="#009818"/>
</svg>
