<svg width="110" height="44" viewBox="0 0 110 44" fill="none" xmlns="http://www.w3.org/2000/svg">
<rect width="110" height="44" rx="4" fill="white"/>
<path d="M11.512 32.176V33.808H13.432V34.552H11.512V36.256H13.672V37H10.6V31.432H13.672V32.176H11.512ZM17.0193 32.52C17.366 32.52 17.6753 32.592 17.9473 32.736C18.2246 32.88 18.4406 33.0933 18.5953 33.376C18.75 33.6587 18.8273 34 18.8273 34.4V37H17.9233V34.536C17.9233 34.1413 17.8246 33.84 17.6273 33.632C17.43 33.4187 17.1606 33.312 16.8193 33.312C16.478 33.312 16.206 33.4187 16.0033 33.632C15.806 33.84 15.7073 34.1413 15.7073 34.536V37H14.7953V32.592H15.7073V33.096C15.8566 32.9147 16.046 32.7733 16.2753 32.672C16.51 32.5707 16.758 32.52 17.0193 32.52ZM21.6946 36.184L22.9426 32.592H23.9106L22.2306 37H21.1426L19.4706 32.592H20.4466L21.6946 36.184ZM25.064 32.008C24.8987 32.008 24.76 31.952 24.648 31.84C24.536 31.728 24.48 31.5893 24.48 31.424C24.48 31.2587 24.536 31.12 24.648 31.008C24.76 30.896 24.8987 30.84 25.064 30.84C25.224 30.84 25.36 30.896 25.472 31.008C25.584 31.12 25.64 31.2587 25.64 31.424C25.64 31.5893 25.584 31.728 25.472 31.84C25.36 31.952 25.224 32.008 25.064 32.008ZM25.512 32.592V37H24.6V32.592H25.512ZM27.6214 33.232C27.7547 33.008 27.9307 32.8347 28.1494 32.712C28.3734 32.584 28.6374 32.52 28.9414 32.52V33.464H28.7094C28.352 33.464 28.08 33.5547 27.8934 33.736C27.712 33.9173 27.6214 34.232 27.6214 34.68V37H26.7094V32.592H27.6214V33.232ZM31.6917 37.072C31.2757 37.072 30.8997 36.9787 30.5637 36.792C30.2277 36.6 29.9637 36.3333 29.7717 35.992C29.5797 35.6453 29.4837 35.2453 29.4837 34.792C29.4837 34.344 29.5824 33.9467 29.7797 33.6C29.977 33.2533 30.2464 32.9867 30.5877 32.8C30.929 32.6133 31.3104 32.52 31.7317 32.52C32.153 32.52 32.5344 32.6133 32.8757 32.8C33.217 32.9867 33.4864 33.2533 33.6837 33.6C33.881 33.9467 33.9797 34.344 33.9797 34.792C33.9797 35.24 33.8784 35.6373 33.6757 35.984C33.473 36.3307 33.1957 36.6 32.8437 36.792C32.497 36.9787 32.113 37.072 31.6917 37.072ZM31.6917 36.28C31.9264 36.28 32.145 36.224 32.3477 36.112C32.5557 36 32.7237 35.832 32.8517 35.608C32.9797 35.384 33.0437 35.112 33.0437 34.792C33.0437 34.472 32.9824 34.2027 32.8597 33.984C32.737 33.76 32.5744 33.592 32.3717 33.48C32.169 33.368 31.9504 33.312 31.7157 33.312C31.481 33.312 31.2624 33.368 31.0597 33.48C30.8624 33.592 30.705 33.76 30.5877 33.984C30.4704 34.2027 30.4117 34.472 30.4117 34.792C30.4117 35.2667 30.5317 35.6347 30.7717 35.896C31.017 36.152 31.3237 36.28 31.6917 36.28ZM37.1053 32.52C37.4519 32.52 37.7613 32.592 38.0333 32.736C38.3106 32.88 38.5266 33.0933 38.6813 33.376C38.8359 33.6587 38.9133 34 38.9133 34.4V37H38.0093V34.536C38.0093 34.1413 37.9106 33.84 37.7133 33.632C37.5159 33.4187 37.2466 33.312 36.9053 33.312C36.5639 33.312 36.2919 33.4187 36.0893 33.632C35.8919 33.84 35.7933 34.1413 35.7933 34.536V37H34.8813V32.592H35.7933V33.096C35.9426 32.9147 36.1319 32.7733 36.3613 32.672C36.5959 32.5707 36.8439 32.52 37.1053 32.52ZM45.4126 32.52C45.7592 32.52 46.0686 32.592 46.3406 32.736C46.6179 32.88 46.8339 33.0933 46.9886 33.376C47.1486 33.6587 47.2286 34 47.2286 34.4V37H46.3246V34.536C46.3246 34.1413 46.2259 33.84 46.0286 33.632C45.8312 33.4187 45.5619 33.312 45.2206 33.312C44.8792 33.312 44.6072 33.4187 44.4046 33.632C44.2072 33.84 44.1086 34.1413 44.1086 34.536V37H43.2046V34.536C43.2046 34.1413 43.1059 33.84 42.9086 33.632C42.7112 33.4187 42.4419 33.312 42.1006 33.312C41.7592 33.312 41.4872 33.4187 41.2846 33.632C41.0872 33.84 40.9886 34.1413 40.9886 34.536V37H40.0766V32.592H40.9886V33.096C41.1379 32.9147 41.3272 32.7733 41.5566 32.672C41.7859 32.5707 42.0312 32.52 42.2926 32.52C42.6446 32.52 42.9592 32.5947 43.2366 32.744C43.5139 32.8933 43.7272 33.1093 43.8766 33.392C44.0099 33.1253 44.2179 32.9147 44.5006 32.76C44.7832 32.6 45.0872 32.52 45.4126 32.52ZM52.4291 34.688C52.4291 34.8533 52.4184 35.0027 52.3971 35.136H49.0291C49.0557 35.488 49.1864 35.7707 49.4211 35.984C49.6557 36.1973 49.9437 36.304 50.2851 36.304C50.7757 36.304 51.1224 36.0987 51.3251 35.688H52.3091C52.1757 36.0933 51.9331 36.4267 51.5811 36.688C51.2344 36.944 50.8024 37.072 50.2851 37.072C49.8637 37.072 49.4851 36.9787 49.1491 36.792C48.8184 36.6 48.5571 36.3333 48.3651 35.992C48.1784 35.6453 48.0851 35.2453 48.0851 34.792C48.0851 34.3387 48.1757 33.9413 48.3571 33.6C48.5437 33.2533 48.8024 32.9867 49.1331 32.8C49.4691 32.6133 49.8531 32.52 50.2851 32.52C50.7011 32.52 51.0717 32.6107 51.3971 32.792C51.7224 32.9733 51.9757 33.2293 52.1571 33.56C52.3384 33.8853 52.4291 34.2613 52.4291 34.688ZM51.4771 34.4C51.4717 34.064 51.3517 33.7947 51.1171 33.592C50.8824 33.3893 50.5917 33.288 50.2451 33.288C49.9304 33.288 49.6611 33.3893 49.4371 33.592C49.2131 33.7893 49.0797 34.0587 49.0371 34.4H51.4771ZM55.5506 32.52C55.8972 32.52 56.2066 32.592 56.4786 32.736C56.7559 32.88 56.9719 33.0933 57.1266 33.376C57.2812 33.6587 57.3586 34 57.3586 34.4V37H56.4546V34.536C56.4546 34.1413 56.3559 33.84 56.1586 33.632C55.9612 33.4187 55.6919 33.312 55.3506 33.312C55.0092 33.312 54.7372 33.4187 54.5346 33.632C54.3372 33.84 54.2386 34.1413 54.2386 34.536V37H53.3266V32.592H54.2386V33.096C54.3879 32.9147 54.5772 32.7733 54.8066 32.672C55.0412 32.5707 55.2892 32.52 55.5506 32.52ZM59.5859 33.336V35.776C59.5859 35.9413 59.6232 36.0613 59.6979 36.136C59.7779 36.2053 59.9112 36.24 60.0979 36.24H60.6579V37H59.9379C59.5272 37 59.2125 36.904 58.9939 36.712C58.7752 36.52 58.6659 36.208 58.6659 35.776V33.336H58.1459V32.592H58.6659V31.496H59.5859V32.592H60.6579V33.336H59.5859ZM61.1944 34.776C61.1944 34.3333 61.2851 33.9413 61.4664 33.6C61.6531 33.2587 61.9038 32.9947 62.2184 32.808C62.5384 32.616 62.8904 32.52 63.2744 32.52C63.6211 32.52 63.9224 32.5893 64.1784 32.728C64.4398 32.8613 64.6478 33.0293 64.8024 33.232V32.592H65.7224V37H64.8024V36.344C64.6478 36.552 64.4371 36.7253 64.1704 36.864C63.9038 37.0027 63.5998 37.072 63.2584 37.072C62.8798 37.072 62.5331 36.976 62.2184 36.784C61.9038 36.5867 61.6531 36.3147 61.4664 35.968C61.2851 35.616 61.1944 35.2187 61.1944 34.776ZM64.8024 34.792C64.8024 34.488 64.7384 34.224 64.6104 34C64.4878 33.776 64.3251 33.6053 64.1224 33.488C63.9198 33.3707 63.7011 33.312 63.4664 33.312C63.2318 33.312 63.0131 33.3707 62.8104 33.488C62.6078 33.6 62.4424 33.768 62.3144 33.992C62.1918 34.2107 62.1304 34.472 62.1304 34.776C62.1304 35.08 62.1918 35.3467 62.3144 35.576C62.4424 35.8053 62.6078 35.9813 62.8104 36.104C63.0184 36.2213 63.2371 36.28 63.4664 36.28C63.7011 36.28 63.9198 36.2213 64.1224 36.104C64.3251 35.9867 64.4878 35.816 64.6104 35.592C64.7384 35.3627 64.8024 35.096 64.8024 34.792ZM67.8323 31.08V37H66.9203V31.08H67.8323ZM69.9417 31.08V37H69.0297V31.08H69.9417ZM75.1071 32.592L72.4031 39.072H71.4591L72.3551 36.928L70.6191 32.592H71.6351L72.8751 35.952L74.1631 32.592H75.1071ZM79.7054 37.056C79.3321 37.056 78.9961 36.992 78.6974 36.864C78.3988 36.7307 78.1641 36.544 77.9934 36.304C77.8228 36.064 77.7374 35.784 77.7374 35.464H78.7134C78.7348 35.704 78.8281 35.9013 78.9934 36.056C79.1641 36.2107 79.4014 36.288 79.7054 36.288C80.0201 36.288 80.2654 36.2133 80.4414 36.064C80.6174 35.9093 80.7054 35.712 80.7054 35.472C80.7054 35.2853 80.6494 35.1333 80.5374 35.016C80.4308 34.8987 80.2948 34.808 80.1294 34.744C79.9694 34.68 79.7454 34.6107 79.4574 34.536C79.0948 34.44 78.7988 34.344 78.5694 34.248C78.3454 34.1467 78.1534 33.992 77.9934 33.784C77.8334 33.576 77.7534 33.2987 77.7534 32.952C77.7534 32.632 77.8334 32.352 77.9934 32.112C78.1534 31.872 78.3774 31.688 78.6654 31.56C78.9534 31.432 79.2868 31.368 79.6654 31.368C80.2041 31.368 80.6441 31.504 80.9854 31.776C81.3321 32.0427 81.5241 32.4107 81.5614 32.88H80.5534C80.5374 32.6773 80.4414 32.504 80.2654 32.36C80.0894 32.216 79.8574 32.144 79.5694 32.144C79.3081 32.144 79.0948 32.2107 78.9294 32.344C78.7641 32.4773 78.6814 32.6693 78.6814 32.92C78.6814 33.0907 78.7321 33.232 78.8334 33.344C78.9401 33.4507 79.0734 33.536 79.2334 33.6C79.3934 33.664 79.6121 33.7333 79.8894 33.808C80.2574 33.9093 80.5561 34.0107 80.7854 34.112C81.0201 34.2133 81.2174 34.3707 81.3774 34.584C81.5428 34.792 81.6254 35.072 81.6254 35.424C81.6254 35.7067 81.5481 35.9733 81.3934 36.224C81.2441 36.4747 81.0228 36.6773 80.7294 36.832C80.4414 36.9813 80.1001 37.056 79.7054 37.056ZM82.3976 34.776C82.3976 34.3333 82.4882 33.9413 82.6696 33.6C82.8562 33.2587 83.1069 32.9947 83.4216 32.808C83.7416 32.616 84.0936 32.52 84.4776 32.52C84.8242 32.52 85.1256 32.5893 85.3816 32.728C85.6429 32.8613 85.8509 33.0293 86.0056 33.232V32.592H86.9256V37H86.0056V36.344C85.8509 36.552 85.6402 36.7253 85.3736 36.864C85.1069 37.0027 84.8029 37.072 84.4616 37.072C84.0829 37.072 83.7362 36.976 83.4216 36.784C83.1069 36.5867 82.8562 36.3147 82.6696 35.968C82.4882 35.616 82.3976 35.2187 82.3976 34.776ZM86.0056 34.792C86.0056 34.488 85.9416 34.224 85.8136 34C85.6909 33.776 85.5282 33.6053 85.3256 33.488C85.1229 33.3707 84.9042 33.312 84.6696 33.312C84.4349 33.312 84.2162 33.3707 84.0136 33.488C83.8109 33.6 83.6456 33.768 83.5176 33.992C83.3949 34.2107 83.3336 34.472 83.3336 34.776C83.3336 35.08 83.3949 35.3467 83.5176 35.576C83.6456 35.8053 83.8109 35.9813 84.0136 36.104C84.2216 36.2213 84.4402 36.28 84.6696 36.28C84.9042 36.28 85.1229 36.2213 85.3256 36.104C85.5282 35.9867 85.6909 35.816 85.8136 35.592C85.9416 35.3627 86.0056 35.096 86.0056 34.792ZM89.9714 33.336H89.1554V37H88.2354V33.336H87.7154V32.592H88.2354V32.28C88.2354 31.7733 88.3688 31.4053 88.6354 31.176C88.9074 30.9413 89.3314 30.824 89.9074 30.824V31.584C89.6301 31.584 89.4354 31.6373 89.3234 31.744C89.2114 31.8453 89.1554 32.024 89.1554 32.28V32.592H89.9714V33.336ZM94.8197 34.688C94.8197 34.8533 94.809 35.0027 94.7877 35.136H91.4197C91.4464 35.488 91.577 35.7707 91.8117 35.984C92.0464 36.1973 92.3344 36.304 92.6757 36.304C93.1664 36.304 93.513 36.0987 93.7157 35.688H94.6997C94.5664 36.0933 94.3237 36.4267 93.9717 36.688C93.625 36.944 93.193 37.072 92.6757 37.072C92.2544 37.072 91.8757 36.9787 91.5397 36.792C91.209 36.6 90.9477 36.3333 90.7557 35.992C90.569 35.6453 90.4757 35.2453 90.4757 34.792C90.4757 34.3387 90.5664 33.9413 90.7477 33.6C90.9344 33.2533 91.193 32.9867 91.5237 32.8C91.8597 32.6133 92.2437 32.52 92.6757 32.52C93.0917 32.52 93.4624 32.6107 93.7877 32.792C94.113 32.9733 94.3664 33.2293 94.5477 33.56C94.729 33.8853 94.8197 34.2613 94.8197 34.688ZM93.8677 34.4C93.8624 34.064 93.7424 33.7947 93.5077 33.592C93.273 33.3893 92.9824 33.288 92.6357 33.288C92.321 33.288 92.0517 33.3893 91.8277 33.592C91.6037 33.7893 91.4704 34.0587 91.4277 34.4H93.8677Z" fill="#008AD8"/>
<path d="M14.592 9.152V26H10.488V9.152H14.592ZM23.6621 26.168C22.4301 26.168 21.3261 25.968 20.3501 25.568C19.3741 25.168 18.5901 24.576 17.9981 23.792C17.4221 23.008 17.1181 22.064 17.0861 20.96H21.4541C21.5181 21.584 21.7341 22.064 22.1021 22.4C22.4701 22.72 22.9501 22.88 23.5421 22.88C24.1501 22.88 24.6301 22.744 24.9821 22.472C25.3341 22.184 25.5101 21.792 25.5101 21.296C25.5101 20.88 25.3661 20.536 25.0781 20.264C24.8061 19.992 24.4621 19.768 24.0461 19.592C23.6461 19.416 23.0701 19.216 22.3181 18.992C21.2301 18.656 20.3421 18.32 19.6541 17.984C18.9661 17.648 18.3741 17.152 17.8781 16.496C17.3821 15.84 17.1341 14.984 17.1341 13.928C17.1341 12.36 17.7021 11.136 18.8381 10.256C19.9741 9.36 21.4541 8.912 23.2781 8.912C25.1341 8.912 26.6301 9.36 27.7661 10.256C28.9021 11.136 29.5101 12.368 29.5901 13.952H25.1501C25.1181 13.408 24.9181 12.984 24.5501 12.68C24.1821 12.36 23.7101 12.2 23.1341 12.2C22.6381 12.2 22.2381 12.336 21.9341 12.608C21.6301 12.864 21.4781 13.24 21.4781 13.736C21.4781 14.28 21.7341 14.704 22.2461 15.008C22.7581 15.312 23.5581 15.64 24.6461 15.992C25.7341 16.36 26.6141 16.712 27.2861 17.048C27.9741 17.384 28.5661 17.872 29.0621 18.512C29.5581 19.152 29.8061 19.976 29.8061 20.984C29.8061 21.944 29.5581 22.816 29.0621 23.6C28.5821 24.384 27.8781 25.008 26.9501 25.472C26.0221 25.936 24.9261 26.168 23.6621 26.168ZM40.2998 26.168C38.7158 26.168 37.2598 25.8 35.9318 25.064C34.6198 24.328 33.5718 23.304 32.7878 21.992C32.0197 20.664 31.6357 19.176 31.6357 17.528C31.6357 15.88 32.0197 14.4 32.7878 13.088C33.5718 11.776 34.6198 10.752 35.9318 10.016C37.2598 9.28 38.7158 8.912 40.2998 8.912C41.8838 8.912 43.3318 9.28 44.6438 10.016C45.9718 10.752 47.0118 11.776 47.7638 13.088C48.5318 14.4 48.9158 15.88 48.9158 17.528C48.9158 19.176 48.5318 20.664 47.7638 21.992C46.9958 23.304 45.9558 24.328 44.6438 25.064C43.3318 25.8 41.8838 26.168 40.2998 26.168ZM40.2998 22.424C41.6438 22.424 42.7158 21.976 43.5157 21.08C44.3318 20.184 44.7398 19 44.7398 17.528C44.7398 16.04 44.3318 14.856 43.5157 13.976C42.7158 13.08 41.6438 12.632 40.2998 12.632C38.9398 12.632 37.8518 13.072 37.0358 13.952C36.2358 14.832 35.8358 16.024 35.8358 17.528C35.8358 19.016 36.2358 20.208 37.0358 21.104C37.8518 21.984 38.9398 22.424 40.2998 22.424ZM58.7569 16.592C57.2529 15.792 56.5009 14.536 56.5009 12.824C56.5009 11.96 56.7249 11.176 57.1729 10.472C57.6209 9.752 58.3009 9.184 59.2129 8.768C60.1249 8.336 61.2449 8.12 62.5729 8.12C63.9009 8.12 65.0129 8.336 65.9089 8.768C66.8209 9.184 67.5009 9.752 67.9489 10.472C68.3969 11.176 68.6209 11.96 68.6209 12.824C68.6209 13.688 68.4129 14.44 67.9969 15.08C67.5969 15.72 67.0529 16.224 66.3649 16.592C67.2289 17.008 67.8929 17.584 68.3569 18.32C68.8209 19.04 69.0529 19.888 69.0529 20.864C69.0529 22 68.7649 22.984 68.1889 23.816C67.6129 24.632 66.8289 25.256 65.8369 25.688C64.8609 26.12 63.7729 26.336 62.5729 26.336C61.3729 26.336 60.2769 26.12 59.2849 25.688C58.3089 25.256 57.5329 24.632 56.9569 23.816C56.3809 22.984 56.0929 22 56.0929 20.864C56.0929 19.872 56.3249 19.016 56.7889 18.296C57.2529 17.56 57.9089 16.992 58.7569 16.592ZM64.6369 13.448C64.6369 12.792 64.4449 12.288 64.0609 11.936C63.6929 11.568 63.1969 11.384 62.5729 11.384C61.9489 11.384 61.4449 11.568 61.0609 11.936C60.6929 12.304 60.5089 12.816 60.5089 13.472C60.5089 14.096 60.7009 14.592 61.0849 14.96C61.4689 15.312 61.9649 15.488 62.5729 15.488C63.1809 15.488 63.6769 15.304 64.0609 14.936C64.4449 14.568 64.6369 14.072 64.6369 13.448ZM62.5729 18.368C61.8209 18.368 61.2129 18.576 60.7489 18.992C60.2849 19.392 60.0529 19.952 60.0529 20.672C60.0529 21.344 60.2769 21.896 60.7249 22.328C61.1889 22.76 61.8049 22.976 62.5729 22.976C63.3409 22.976 63.9409 22.76 64.3729 22.328C64.8209 21.896 65.0449 21.344 65.0449 20.672C65.0449 19.968 64.8129 19.408 64.3489 18.992C63.9009 18.576 63.3089 18.368 62.5729 18.368ZM74.3194 16.592C72.8154 15.792 72.0634 14.536 72.0634 12.824C72.0634 11.96 72.2874 11.176 72.7354 10.472C73.1834 9.752 73.8634 9.184 74.7754 8.768C75.6874 8.336 76.8074 8.12 78.1354 8.12C79.4634 8.12 80.5754 8.336 81.4714 8.768C82.3834 9.184 83.0634 9.752 83.5114 10.472C83.9594 11.176 84.1834 11.96 84.1834 12.824C84.1834 13.688 83.9754 14.44 83.5594 15.08C83.1594 15.72 82.6154 16.224 81.9274 16.592C82.7914 17.008 83.4554 17.584 83.9194 18.32C84.3834 19.04 84.6154 19.888 84.6154 20.864C84.6154 22 84.3274 22.984 83.7514 23.816C83.1754 24.632 82.3914 25.256 81.3994 25.688C80.4234 26.12 79.3354 26.336 78.1354 26.336C76.9354 26.336 75.8394 26.12 74.8474 25.688C73.8714 25.256 73.0954 24.632 72.5194 23.816C71.9434 22.984 71.6554 22 71.6554 20.864C71.6554 19.872 71.8874 19.016 72.3514 18.296C72.8154 17.56 73.4714 16.992 74.3194 16.592ZM80.1994 13.448C80.1994 12.792 80.0074 12.288 79.6234 11.936C79.2554 11.568 78.7594 11.384 78.1354 11.384C77.5114 11.384 77.0074 11.568 76.6234 11.936C76.2554 12.304 76.0714 12.816 76.0714 13.472C76.0714 14.096 76.2634 14.592 76.6474 14.96C77.0314 15.312 77.5274 15.488 78.1354 15.488C78.7434 15.488 79.2394 15.304 79.6234 14.936C80.0074 14.568 80.1994 14.072 80.1994 13.448ZM78.1354 18.368C77.3834 18.368 76.7754 18.576 76.3114 18.992C75.8474 19.392 75.6154 19.952 75.6154 20.672C75.6154 21.344 75.8394 21.896 76.2874 22.328C76.7514 22.76 77.3674 22.976 78.1354 22.976C78.9034 22.976 79.5034 22.76 79.9354 22.328C80.3834 21.896 80.6074 21.344 80.6074 20.672C80.6074 19.968 80.3754 19.408 79.9114 18.992C79.4634 18.576 78.8714 18.368 78.1354 18.368Z" fill="#008AD8"/>
</svg>
