<svg width="16" height="16" viewBox="0 0 16 16" fill="none" xmlns="http://www.w3.org/2000/svg">
<g id="linkedin-in">
<path id="Vector" d="M4.13375 14.0001H1.23125V4.65318H4.13375V14.0001ZM2.68094 3.37818C1.75281 3.37818 1 2.60943 1 1.6813C1 1.23549 1.1771 0.807938 1.49234 0.492701C1.80757 0.177464 2.23513 0.000366211 2.68094 0.000366211C3.12675 0.000366211 3.5543 0.177464 3.86954 0.492701C4.18478 0.807938 4.36188 1.23549 4.36188 1.6813C4.36188 2.60943 3.60875 3.37818 2.68094 3.37818ZM14.9969 14.0001H12.1006V9.45005C12.1006 8.36568 12.0787 6.97505 10.5916 6.97505C9.0825 6.97505 8.85125 8.15318 8.85125 9.37193V14.0001H5.95188V4.65318H8.73562V5.92818H8.77625C9.16375 5.1938 10.1103 4.4188 11.5225 4.4188C14.46 4.4188 15 6.35318 15 8.86568V14.0001H14.9969Z" fill="white"/>
</g>
</svg>
